:SAMPLES-PER-SECOND 30
:FULLY-SPECIFIED
:DEGREES
225
root  -59.0196 32.6047 -46.8905 177.177 44.1739 174.566
RightUpLeg  -5.67968 -36.3327 2.4487
RightLeg  48.54 -1.87478 -1.90603
RightFoot  -4.3364 -0.00688636 0.195692
RightToes  -27.6684 -0.128199 -0.235439
Spine  4.26756 0.414345 -5.73869
Spine1  8.00579 1.03574 -10.2988
HEad  36.1585 -25.4431 26.1997
LeftShoulder1  0 -2.42657e-020 -4.95415e-022
LeftArm  -41.31 0.480021 -54.3207
LeftForeArm  -156.75 -75.6851 -42.1596
LeftHand  5.16507 -41.3863 -13.9905
RightShoulder  0 2.42657e-020 1.07489e-018
RightArm  -50.2694 -13.2745 88.7137
RightForeArm  53.5389 19.0819 3.46055
RightHand  -1.19677 22.9022 -5.53458
LeftUpLeg  -23.2511 -10.1894 1.28218
LeftLeg  27.4643 -15.0966 -6.55078
LeftFoot  6.47762 0.109189 -1.92937
LeftToes  -36.2029 1.18758e-006 1.19596e-007
226
root  -59.1219 32.9035 -46.8869 177.568 49.2158 174.507
RightUpLeg  -8.44469 -38.8624 2.98108
RightLeg  50.2212 -4.20422 -4.4685
RightFoot  -0.428707 -0.00136488 0.0127454
RightToes  -33.5124 -0.168841 -0.275622
Spine  4.38387 0.371236 -5.62338
Spine1  8.1473 0.962028 -10.1142
HEad  34.9699 -25.3485 26.6738
LeftShoulder1  0 -2.42657e-020 -4.95415e-022
LeftArm  -36.6809 -1.23765 -55.8301
LeftForeArm  -142.03 -77.8269 -52.5933
LeftHand  5.3473 -41.3062 -14.4966
RightShoulder  0 2.42657e-020 1.07489e-018
RightArm  -46.3863 -11.868 89.9037
RightForeArm  53.3733 20.3686 3.71705
RightHand  -0.949985 23.522 -4.19162
LeftUpLeg  -21.4115 -7.5624 1.7721
LeftLeg  24.1974 -13.0863 -4.84563
LeftFoot  7.39996 0.120431 -1.86218
LeftToes  -34.2153 1.18758e-006 1.19596e-007
227
root  -59.3323 33.0481 -46.8688 177.605 54.3419 174.187
RightUpLeg  -10.9063 -39.4983 2.5967
RightLeg  52.1745 -2.77705 -3.18594
RightFoot  0.806177 0.00327769 -0.0882624
RightToes  -34.1449 -0.17348 -0.279717
Spine  4.61759 -0.014495 -5.43974
Spine1  8.47546 0.240167 -9.8268
HEad  33.9459 -23.6501 25.9954
LeftShoulder1  0 -2.42657e-020 -4.95415e-022
LeftArm  -31.6615 -1.75464 -56.904
LeftForeArm  -123.49 -79.3876 -66.19
LeftHand  6.1369 -40.27 -17.0087
RightShoulder  0 2.42657e-020 1.07489e-018
RightArm  -41.2186 -10.2083 90.8298
RightForeArm  52.5414 22.0907 4.06862
RightHand  -0.670559 24.3006 -2.74449
LeftUpLeg  -20.3008 -3.88348 2.00631
LeftLeg  22.4869 -11.9083 -4.02197
LeftFoot  7.80795 0.121096 -1.77435
LeftToes  -33.7082 1.18758e-006 1.19596e-007
228
root  -59.6061 33.0508 -46.8286 177.3 59.3189 173.406
RightUpLeg  -12.7762 -38.7868 1.30943
RightLeg  52.9356 2.69018 3.06256
RightFoot  -0.0121346 -3.98223e-005 0.00162289
RightToes  -42.7028 -0.240426 -0.329875
Spine  4.8657 -0.663413 -5.158
Spine1  8.84589 -1.03105 -9.33786
HEad  33.448 -21.0786 24.7456
LeftShoulder1  0 -2.42657e-020 -4.95415e-022
LeftArm  -26.4348 -1.37016 -57.9344
LeftForeArm  -106.227 -80.0228 -77.0231
LeftHand  7.00539 -38.6289 -20.1862
RightShoulder  0 2.42657e-020 1.07489e-018
RightArm  -35.4816 -8.73206 91.5613
RightForeArm  50.2672 24.2576 4.52617
RightHand  -0.520288 24.645 -2.01193
LeftUpLeg  -20.3193 1.23713 1.92084
LeftLeg  22.6186 -12.0669 -4.10515
LeftFoot  7.61257 0.117986 -1.77329
LeftToes  -34.0048 1.18758e-006 1.19596e-007
229
root  -59.8901 32.984 -46.7213 176.075 64.7444 171.76
RightUpLeg  -14.2496 -36.2577 -0.410809
RightLeg  52.6483 6.20439 7.02678
RightFoot  -3.0913 -0.0220303 -0.43898
RightToes  -50.8634 -0.310546 -0.36792
Spine  5.26201 -1.12213 -4.88744
Spine1  9.45518 -1.84523 -8.97142
HEad  32.6597 -18.1289 23.8222
LeftShoulder1  0 -2.42657e-020 -4.95415e-022
LeftArm  -22.2111 -1.51064 -59.9941
LeftForeArm  -105.975 -79.7454 -71.2343
LeftHand  8.11831 -36.4662 -24.6876
RightShoulder  0 2.42657e-020 1.07489e-018
RightArm  -31.0215 -7.11769 92.505
RightForeArm  48.0422 26.0447 4.91619
RightHand  -0.596434 24.6632 -2.35835
LeftUpLeg  -20.8295 7.97714 1.63373
LeftLeg  23.9239 -13.045 -4.76086
LeftFoot  6.91593 0.107718 -1.78251
LeftToes  -33.3284 1.18758e-006 1.19596e-007
230
root  -60.4164 32.839 -46.731 175.486 67.8035 170.764
RightUpLeg  -15.6828 -36.2802 -3.19473
RightLeg  52.2802 4.59674 5.14154
RightFoot  -6.26507 -0.0529301 -0.589651
RightToes  -48.4604 -0.289345 -0.35776
Spine  5.98328 -2.14516 -4.43181
Spine1  10.643 -3.69268 -8.45837
HEad  31.5033 -15.6004 23.152
LeftShoulder1  0 -2.42657e-020 -4.95415e-022
LeftArm  -18.4548 -1.84044 -63.5883
LeftForeArm  -120.055 -77.8101 -52.3392
LeftHand  9.45512 -33.441 -31.1591
RightShoulder  0 2.42657e-020 1.07489e-018
RightArm  -28.6818 -4.95332 93.4077
RightForeArm  46.2596 27.0147 5.13382
RightHand  -0.718739 24.68 -2.91527
LeftUpLeg  -22.875 9.53983 1.3381
LeftLeg  26.5534 -11.418 -4.77677
LeftFoot  6.08447 0.0759098 -1.42824
LeftToes  -32.2582 1.18758e-006 1.19596e-007
231
root  -60.9129 32.668 -46.6207 174.855 71.9662 169.636
RightUpLeg  -17.2229 -32.8476 -5.56687
RightLeg  51.4678 -0.140424 -0.205781
RightFoot  -8.64955 -0.00571675 0.30198
RightToes  -40.6345 -0.223572 -0.318678
Spine  6.75667 -2.65801 -3.79685
Spine1  11.8828 -4.43624 -7.77977
HEad  30.0115 -12.4169 21.9741
LeftShoulder1  0 -2.42657e-020 -4.95415e-022
LeftArm  -15.1515 -2.23799 -68.2138
LeftForeArm  -136.589 -71.1072 -29.8562
LeftHand  10.3008 -27.5886 -40.6969
RightShoulder  0 2.42657e-020 1.07489e-018
RightArm  -27.1706 -2.30858 94.1193
RightForeArm  45.9506 27.062 5.14489
RightHand  -0.967077 24.5488 -4.07384
LeftUpLeg  -25.1482 13.5879 1.30714
LeftLeg  29.6217 -10.8917 -5.25507
LeftFoot  5.08371 0.0529547 -1.19283
LeftToes  -31.7119 1.18758e-006 1.19596e-007
